<?xml version="1.0" encoding="UTF-8"?>
<svg width="17px" height="17px" viewBox="0 0 17 17" version="1.1" xmlns="http://www.w3.org/2000/svg" xmlns:xlink="http://www.w3.org/1999/xlink">
    <title>D498526D-3842-43E6-94C7-F3143F71FAAC</title>
    <g id="Page-1" stroke="none" stroke-width="1" fill="none" fill-rule="evenodd">
        <g id="Flyout" transform="translate(-14.000000, -19.000000)" fill="#747480" stroke="#FFFFFF" stroke-width="0.25">
            <g id="pop-up-simulator-" transform="translate(15.000000, 9.000000)">
                <path d="M11.2757881,18.8030396 C10.5287843,19.5620434 10.1875326,20.654049 10.3645335,21.7258044 L10.6922851,23.7178145 L8.97477641,22.7773097 C8.52177411,22.5290585 8.01177152,22.3978078 7.50026893,22.3978078 C6.98801633,22.3978078 6.47801375,22.5290585 6.02501145,22.7773097 L4.30750274,23.7178145 L4.6360044,21.7258044 C4.8122553,20.654049 4.47100357,19.5620434 3.72399978,18.8030396 L2.33499273,17.3922824 L4.25500247,17.1012809 C5.28775771,16.9452802 6.17951223,16.2702767 6.64151457,15.2952718 L7.50026893,13.4825126 L8.35902328,15.2952718 C8.82027562,16.2702767 9.71278015,16.9452802 10.7447854,17.1012809 L12.6655451,17.3922824 L11.2757881,18.8030396 Z M14.5885549,18.0747859 C15.394059,17.2565317 14.9500567,15.8307745 13.8363011,15.6620236 L11.0057867,15.2337715 C10.5632845,15.1670211 10.1807825,14.8775197 9.98353152,14.4597675 L8.7175251,11.788254 C8.46852384,11.2625013 7.98402138,11 7.50026893,11 C7.01576647,11 6.53126402,11.2625013 6.28226275,11.788254 L5.01700634,14.4597675 C4.81900533,14.8775197 4.43650339,15.1670211 3.99475115,15.2337715 L1.1642368,15.6620236 C0.050481148,15.8307745 -0.394271108,17.2565317 0.411232978,18.0747859 L2.45949337,20.1545464 C2.77974499,20.4792981 2.92599573,20.9473004 2.85024535,21.4063028 L2.36649289,24.3433177 C2.21574213,25.2575723 2.91324567,26.0000761 3.70449968,26.0000761 C3.91300074,26.0000761 4.12900183,25.9483258 4.33675289,25.8343252 L6.86801572,24.4475682 C7.06601673,24.3395677 7.28276783,24.2848174 7.50026893,24.2848174 C7.71702003,24.2848174 7.93377113,24.3395677 8.13177213,24.4475682 L10.663785,25.8343252 C10.871536,25.9483258 11.0867871,26.0000761 11.2952882,26.0000761 C12.0865422,26.0000761 12.7840457,25.2575723 12.633295,24.3433177 L12.1502925,21.4063028 C12.0745421,20.9473004 12.2200429,20.4792981 12.5402945,20.1545464 L14.5885549,18.0747859 Z" id="star_favorite-[#1498]"></path>
            </g>
        </g>
    </g>
</svg>