<?xml version="1.0" encoding="UTF-8"?>
<svg width="25px" height="25px" viewBox="0 0 25 25" version="1.1" xmlns="http://www.w3.org/2000/svg" xmlns:xlink="http://www.w3.org/1999/xlink">
    <title>77A34FF9-DB28-444A-B2ED-54F299B8B593</title>
    <g id="Page-1" stroke="none" stroke-width="1" fill="none" fill-rule="evenodd">
        <g id="6-bottom-sheet" transform="translate(-1225.000000, -859.000000)" fill="#FFFFFF" fill-rule="nonzero">
            <path d="M1226.5625,859 L1226.5625,882.4375 L1250,882.4375 L1250,884 L1225,884 L1225,859 L1226.5625,859 Z M1244.53125,866.03125 L1244.53125,873.0625 L1247.57812,873.0625 L1247.57812,878.53125 L1244.45312,878.53125 L1244.45312,873.0625 L1241.40625,873.0625 L1241.40625,880.875 L1238.28125,880.875 L1238.28125,873.0625 L1241.40625,873.0625 L1241.40625,866.03125 L1244.53125,866.03125 Z M1235.15625,873.0625 L1235.15625,879.3125 L1232.03125,879.3125 L1232.03125,873.0625 L1235.15625,873.0625 Z M1238.28125,862.125 L1238.28125,873.0625 L1235.15625,873.0625 L1235.15625,862.125 L1238.28125,862.125 Z M1232.03125,866.8125 L1232.03125,873.0625 L1228.90625,873.0625 L1228.90625,866.8125 L1232.03125,866.8125 Z" id="19"></path>
        </g>
    </g>
</svg>