<?xml version="1.0" encoding="UTF-8"?>
<svg width="25px" height="25px" viewBox="0 0 25 25" version="1.1" xmlns="http://www.w3.org/2000/svg" xmlns:xlink="http://www.w3.org/1999/xlink">
    <title>AF4DBB44-5EF6-4601-8022-2A84EB883F46</title>
    <g id="Page-1" stroke="none" stroke-width="1" fill="none" fill-rule="evenodd">
        <g id="6-bottom-sheet" transform="translate(-1290.000000, -859.000000)" fill="#FFFFFF" fill-rule="nonzero">
            <path d="M1291.55556,859 L1291.55556,882.444444 L1315,882.444444 L1315,884 L1290,884 L1290,859 L1291.55556,859 Z M1293.13889,876.055556 L1302.5,878.222222 L1315,880.166667 L1315,881.111111 L1301.52778,880.166667 L1293.13889,878.75 L1293.13889,876.055556 Z M1293.13889,868.416667 L1298.66667,871.5 L1305.38889,872.472222 L1315,876.305556 L1315,878.666667 L1310.19444,876.305556 L1299.97222,874.916667 L1293.13889,872.583333 L1293.13889,868.416667 Z M1293.13889,864.666667 L1298.22222,867.666667 L1307.30556,870.527778 L1315,873.416667 L1315,874.388889 L1305.38889,870.527778 L1298.66667,868.611111 L1293.13889,866.166667 L1293.13889,864.666667 Z" id="20"></path>
        </g>
    </g>
</svg>