<?xml version="1.0" encoding="UTF-8"?>
<svg width="40px" height="20px" viewBox="0 0 40 20" version="1.1" xmlns="http://www.w3.org/2000/svg" xmlns:xlink="http://www.w3.org/1999/xlink">
    <title>987141E6-A798-4389-8330-26913257E07D</title>
    <g id="Page-1" stroke="none" stroke-width="1" fill="none" fill-rule="evenodd">
        <g id="6-bottom-sheet" transform="translate(-1146.000000, -864.000000)" fill="#FFFFFF" fill-rule="nonzero">
            <g id="noun_Graph_26963" transform="translate(1146.000000, 864.000000)">
                <g id="Group">
                    <polygon id="Path" points="0.382352941 2.38884615 2.57629412 0.182307692 2.13544118 0.182307692 0.382352941 1.94538462"></polygon>
                    <polygon id="Path" points="0.382352941 3.43576923 3.61667647 0.182307692 3.17620588 0.182307692 0.382352941 2.99192308"></polygon>
                    <polygon id="Path" points="0.494764706 0.182307692 0.382352941 0.182307692 0.382352941 0.295"></polygon>
                    <polygon id="Path" points="0.382352941 1.34192308 1.53591176 0.182307692 1.09505882 0.182307692 0.382352941 0.898461538"></polygon>
                    <g transform="translate(0.382353, 0.000000)">
                        <polygon id="Path" points="0 4.48269231 4.27547059 0.182307692 3.83461765 0.182307692 0 4.03961538"></polygon>
                        <polygon id="Path" points="0 5.53 5.317 0.182307692 4.87614706 0.182307692 0 5.08692308"></polygon>
                        <polygon id="Path" points="0 6.57692308 6.00485294 0.536923077 6.00485294 0.182307692 5.91652941 0.182307692 0 6.13346154"></polygon>
                        <g transform="translate(7.647059, 0.000000)" id="Path">
                            <polygon points="2.16411765 0.182307692 0.411029412 1.94538462 0.411029412 2.38884615 2.60458824 0.182307692"></polygon>
                            <polygon points="3.20411765 0.182307692 0.411029412 2.99192308 0.411029412 3.435 3.64497059 0.182307692"></polygon>
                            <polygon points="1.12335294 0.182307692 0.411029412 0.899230769 0.411029412 1.34269231 1.56458824 0.182307692"></polygon>
                            <polygon points="3.38573529 4.63115385 6.41511765 1.58384615 6.41511765 1.13961538 2.94488235 4.63115385"></polygon>
                            <polygon points="4.24564706 0.182307692 0.411029412 4.03961538 0.411029412 4.48269231 4.6865 0.182307692"></polygon>
                            <polygon points="6.06794118 4.63115385 6.41511765 4.63115385 6.41511765 4.28153846"></polygon>
                            <polygon points="6.32717647 0.182307692 1.9045 4.63115385 2.34535294 4.63115385 6.41511765 0.536923077 6.41511765 0.182307692"></polygon>
                            <polygon points="0.864117647 4.63115385 1.30497059 4.63115385 5.72764706 0.182307692 5.28717647 0.182307692"></polygon>
                            <polygon points="3.98602941 4.63115385 4.42688235 4.63115385 6.41511765 2.63076923 6.41511765 2.18730769"></polygon>
                            <polygon points="0.411029412 0.295 0.523058824 0.182307692 0.411029412 0.182307692"></polygon>
                            <polygon points="5.02679412 4.63115385 5.46764706 4.63115385 6.41511765 3.67807692 6.41511765 3.23461538"></polygon>
                        </g>
                        <g transform="translate(15.676471, 0.000000)" id="Path">
                            <polygon points="1.99473529 15.0384615 2.43597059 15.0384615 6.44417647 11.0069231 6.44417647 10.5634615"></polygon>
                            <polygon points="4.07664706 15.0384615 4.51711765 15.0384615 6.44417647 13.1011538 6.44417647 12.6576923"></polygon>
                            <polygon points="6.15779412 15.0384615 6.44417647 15.0384615 6.44417647 14.7515385"></polygon>
                            <polygon points="3.03588235 15.0384615 3.47673529 15.0384615 6.44417647 12.0542308 6.44417647 11.6107692"></polygon>
                            <polygon points="5.11741176 15.0384615 5.55864706 15.0384615 6.44417647 14.1476923 6.44417647 13.7046154"></polygon>
                            <polygon points="2.19202941 0.182307692 0.438558824 1.94576923 0.438558824 2.38923077 2.63288235 0.182307692"></polygon>
                            <polygon points="1.15164706 0.182307692 0.438558824 0.899230769 0.438558824 1.34269231 1.5925 0.182307692"></polygon>
                            <polygon points="0.438558824 0.295384615 0.551352941 0.182307692 0.438558824 0.182307692"></polygon>
                            <polygon points="4.27394118 0.182307692 0.438558824 4.03961538 0.438558824 4.48346154 4.71441176 0.182307692"></polygon>
                            <polygon points="3.23279412 0.182307692 0.438558824 2.99307692 0.438558824 3.43576923 3.67326471 0.182307692"></polygon>
                            <polygon points="0.438558824 14.5103846 0.438558824 14.9534615 6.44417647 8.91307692 6.44417647 8.46961538"></polygon>
                            <polygon points="0.438558824 9.27461538 0.438558824 9.71884615 6.44417647 3.67807692 6.44417647 3.23461538"></polygon>
                            <polygon points="0.438558824 7.18076923 0.438558824 7.62461538 6.44417647 1.58384615 6.44417647 1.14"></polygon>
                            <polygon points="0.438558824 8.22807692 0.438558824 8.67115385 6.44417647 2.63076923 6.44417647 2.18730769"></polygon>
                            <polygon points="0.438558824 5.08730769 0.438558824 5.53076923 5.75708824 0.182307692 5.31547059 0.182307692"></polygon>
                            <polygon points="0.954352941 15.0384615 1.39482353 15.0384615 6.44417647 9.96 6.44417647 9.51653846"></polygon>
                            <polygon points="6.35547059 0.182307692 0.438558824 6.13384615 0.438558824 6.57730769 6.44417647 0.536923077 6.44417647 0.182307692"></polygon>
                            <polygon points="0.438558824 12.4157692 0.438558824 12.86 6.44417647 6.81884615 6.44417647 6.37538462"></polygon>
                            <polygon points="0.438558824 10.3219231 0.438558824 10.7653846 6.44417647 4.725 6.44417647 4.28153846"></polygon>
                            <polygon points="0.438558824 13.4630769 0.438558824 13.9061538 6.44417647 7.86538462 6.44417647 7.42269231"></polygon>
                            <polygon points="0.438558824 11.3696154 0.438558824 11.8126923 6.44417647 5.77153846 6.44417647 5.32846154"></polygon>
                        </g>
                        <g transform="translate(23.705882, 0.000000)" id="Path">
                            <polygon points="2.66117647 0.182307692 2.22032353 0.182307692 0.467617647 1.94538462 0.467617647 2.38884615"></polygon>
                            <polygon points="3.70194118 0.182307692 3.26032353 0.182307692 0.467617647 2.99192308 0.467617647 3.43576923"></polygon>
                            <polygon points="4.74194118 0.182307692 4.30185294 0.182307692 0.467617647 4.03961538 0.467617647 4.48269231"></polygon>
                            <polygon points="1.62041176 0.182307692 1.17994118 0.182307692 0.467617647 0.898461538 0.467617647 1.34192308"></polygon>
                            <polygon points="2.95444118 7.21692308 6.47208824 3.67807692 6.47208824 3.23461538 2.51358824 7.21692308"></polygon>
                            <polygon points="0.579647059 0.182307692 0.467617647 0.182307692 0.467617647 0.295"></polygon>
                            <polygon points="6.47208824 0.536923077 6.47208824 0.182307692 6.38338235 0.182307692 0.467617647 6.13346154 0.467617647 6.57692308"></polygon>
                            <polygon points="6.47208824 5.77153846 6.47208824 5.32846154 4.59511765 7.21692308 5.03597059 7.21692308"></polygon>
                            <polygon points="6.47208824 6.81884615 6.47208824 6.37538462 5.63511765 7.21692308 6.07673529 7.21692308"></polygon>
                            <polygon points="6.47208824 4.725 6.47208824 4.28153846 3.55397059 7.21692308 3.99482353 7.21692308"></polygon>
                            <polygon points="6.47208824 2.63076923 6.47208824 2.18730769 1.47205882 7.21692308 1.91291176 7.21692308"></polygon>
                            <polygon points="0.871382353 7.21692308 6.47208824 1.58384615 6.47208824 1.14 0.467617647 7.18038462 0.467617647 7.21692308"></polygon>
                            <polygon points="5.78423529 0.182307692 5.34338235 0.182307692 0.467617647 5.08692308 0.467617647 5.53"></polygon>
                        </g>
                        <rect id="Rectangle" x="0" y="9.93423077" width="6.00485294" height="9.88307692"></rect>
                        <rect id="Rectangle" x="8.05808824" y="4.63153846" width="6.00447059" height="15.1857692"></rect>
                        <rect id="Rectangle" x="16.1150294" y="15.0384615" width="6.00561765" height="4.78"></rect>
                        <rect id="Rectangle" x="24.1735" y="7.21692308" width="6.00447059" height="12.6011538"></rect>
                        <rect id="Rectangle" x="32.2304412" y="12.3207692" width="6.00485294" height="7.49653846"></rect>
                        <g transform="translate(31.735294, 0.000000)" id="Path">
                            <polygon points="1.64908824 0.182307692 1.20785294 0.182307692 0.495147059 0.899230769 0.495147059 1.34269231"></polygon>
                            <polygon points="0.607941176 0.182307692 0.495147059 0.182307692 0.495147059 0.295384615"></polygon>
                            <polygon points="1.03044118 12.3207692 6.5 6.81884615 6.5 6.37538462 0.589588235 12.3207692"></polygon>
                            <polygon points="2.68908824 0.182307692 2.249 0.182307692 0.495147059 1.94576923 0.495147059 2.38923077"></polygon>
                            <polygon points="2.07158824 12.3207692 6.5 7.86538462 6.5 7.42269231 1.63111765 12.3207692"></polygon>
                            <polygon points="4.15273529 12.3207692 6.5 9.96 6.5 9.51653846 3.71226471 12.3207692"></polygon>
                            <polygon points="3.73023529 0.182307692 3.28976471 0.182307692 0.495147059 2.99307692 0.495147059 3.43576923"></polygon>
                            <polygon points="5.19388235 12.3207692 6.5 11.0069231 6.5 10.5634615 4.75341176 12.3207692"></polygon>
                            <polygon points="3.11273529 12.3207692 6.5 8.91307692 6.5 8.46961538 2.67111765 12.3207692"></polygon>
                            <polygon points="6.5 5.77153846 6.5 5.32846154 0.495147059 11.3688462 0.495147059 11.8119231"></polygon>
                            <polygon points="6.5 2.63076923 6.5 2.18730769 0.495147059 8.22807692 0.495147059 8.67115385"></polygon>
                            <polygon points="6.5 3.67807692 6.5 3.23461538 0.495147059 9.27461538 0.495147059 9.71884615"></polygon>
                            <polygon points="6.5 4.725 6.5 4.28153846 0.495147059 10.3219231 0.495147059 10.7653846"></polygon>
                            <polygon points="6.5 12.0542308 6.5 11.6107692 5.79417647 12.3207692 6.23502941 12.3207692"></polygon>
                            <polygon points="4.77138235 0.182307692 4.33014706 0.182307692 0.495147059 4.03961538 0.495147059 4.48346154"></polygon>
                            <polygon points="6.5 1.58307692 6.5 1.13961538 0.495147059 7.18038462 0.495147059 7.62461538"></polygon>
                            <polygon points="5.81252941 0.182307692 5.37205882 0.182307692 0.495147059 5.08730769 0.495147059 5.53076923"></polygon>
                            <polygon points="6.5 0.536923077 6.5 0.182307692 6.41205882 0.182307692 0.495147059 6.13384615 0.495147059 6.57730769"></polygon>
                        </g>
                        <g transform="translate(0.000000, 0.769231)" id="Path">
                            <polygon points="2.46694118 9.165 2.90741176 9.165 6.00485294 6.04961538 6.00485294 5.60615385"></polygon>
                            <polygon points="3.50770588 9.165 3.94855882 9.165 6.00485294 7.09615385 6.00485294 6.65346154"></polygon>
                            <polygon points="5.58961765 9.165 6.00485294 9.165 6.00485294 8.74730769"></polygon>
                            <polygon points="4.54885294 9.165 4.98970588 9.165 6.00485294 8.14384615 6.00485294 7.70038462"></polygon>
                            <polygon points="0.385411765 9.165 0.826264706 9.165 6.00485294 3.95576923 6.00485294 3.51230769"></polygon>
                            <polygon points="0 6.41115385 0 6.85461538 6.00485294 0.814615385 6.00485294 0.370769231"></polygon>
                            <polygon points="1.42579412 9.165 1.86702941 9.165 6.00485294 5.00230769 6.00485294 4.55923077"></polygon>
                            <polygon points="0 7.45807692 0 7.90192308 6.00485294 1.86153846 6.00485294 1.41807692"></polygon>
                            <polygon points="0 8.50538462 0 8.94846154 6.00485294 2.90884615 6.00485294 2.46538462"></polygon>
                        </g>
                    </g>
                </g>
            </g>
        </g>
    </g>
</svg>