<?xml version="1.0" encoding="UTF-8"?>
<svg width="24px" height="24px" viewBox="0 0 24 24" version="1.1" xmlns="http://www.w3.org/2000/svg" xmlns:xlink="http://www.w3.org/1999/xlink">
    <title>D5484CA9-7322-4269-B391-229A5918B30D</title>
    <g id="Page-1" stroke="none" stroke-width="1" fill="none" fill-rule="evenodd">
        <g id="6-bottom-sheet" transform="translate(-1145.000000, -594.000000)" fill="#FFFFFF" fill-rule="nonzero">
            <path d="M1158.26345,594 C1157.91462,594 1157.63151,594.282685 1157.63151,594.631512 L1157.63151,604.736975 C1157.63151,605.085803 1157.9142,605.368488 1158.26345,605.368488 L1168.36849,605.368488 C1168.71731,605.368488 1169,605.085803 1169,604.736975 C1168.99326,598.809858 1164.19056,594.006741 1158.26345,594 Z M1155.73698,596.526471 C1149.80733,596.526471 1145,601.33338 1145,607.263025 C1145,613.19267 1149.80733,618 1155.73698,618 C1161.66662,618 1166.47353,613.193091 1166.47353,607.263025 C1166.47353,606.914197 1166.19084,606.631512 1165.84202,606.631512 L1156.36849,606.631512 L1156.36849,597.157983 C1156.36849,596.809156 1156.0858,596.526471 1155.73698,596.526471 Z M1155.10546,597.81056 L1155.10546,607.263025 C1155.10546,607.611852 1155.38815,607.894959 1155.73698,607.894959 L1165.18944,607.894959 C1164.85114,612.867434 1160.72125,616.730235 1155.73698,616.736555 C1150.50456,616.73866 1146.26176,612.498806 1146.25965,607.266395 C1146.25797,602.277068 1150.12667,598.140851 1155.10546,597.81056 Z" id="12"></path>
        </g>
    </g>
</svg>