<?xml version="1.0" encoding="UTF-8"?>
<svg width="25px" height="25px" viewBox="0 0 25 25" version="1.1" xmlns="http://www.w3.org/2000/svg" xmlns:xlink="http://www.w3.org/1999/xlink">
    <title>81D97FD6-59DD-481E-9B75-8DF1CD401940</title>
    <g id="Page-1" stroke="none" stroke-width="1" fill="none" fill-rule="evenodd">
        <g id="6-bottom-sheet" transform="translate(-1209.000000, -594.000000)" fill="#FFFFFF" fill-rule="nonzero">
            <path d="M1210.5625,594 L1209,594 L1209,617.4375 L1209,619 L1210.5625,619 L1234,619 L1234,617.4375 L1229.3125,617.4375 L1229.3125,615.875 L1227.75,615.875 L1227.75,617.4375 L1224.625,617.4375 L1224.625,615.875 L1223.0625,615.875 L1223.0625,617.4375 L1219.9375,617.4375 L1219.9375,615.875 L1218.375,615.875 L1218.375,617.4375 L1215.25,617.4375 L1215.25,615.875 L1213.6875,615.875 L1213.6875,617.4375 L1210.5625,617.4375 L1210.5625,594 Z M1234,611.1875 L1234,614.3125 L1212.125,614.3125 L1212.125,611.1875 L1234,611.1875 Z M1229.3125,606.5 L1229.3125,609.625 L1212.125,609.625 L1212.125,606.5 L1229.3125,606.5 Z M1224.625,601.8125 L1224.625,604.9375 L1212.125,604.9375 L1212.125,601.8125 L1224.625,601.8125 Z M1219.9375,597.125 L1219.9375,600.25 L1212.125,600.25 L1212.125,597.125 L1219.9375,597.125 Z" id="13"></path>
        </g>
    </g>
</svg>