<?xml version="1.0" encoding="UTF-8"?>
<svg width="25px" height="25px" viewBox="0 0 25 25" version="1.1" xmlns="http://www.w3.org/2000/svg" xmlns:xlink="http://www.w3.org/1999/xlink">
    <title>874707AD-367D-4441-BE31-B2851CCB6CCC</title>
    <g id="Page-1" stroke="none" stroke-width="1" fill="none" fill-rule="evenodd">
        <g id="6-bottom-sheet" transform="translate(-1274.000000, -595.000000)" fill="#FFFFFF" fill-rule="nonzero">
            <path d="M1276.44283,595 L1276.44283,617.65625 L1277.5343,617.65625 L1282.31601,614.166667 C1282.36798,614.114583 1282.41996,614.0625 1282.47193,614.010417 L1282.47193,614.010417 L1286.57796,607.708333 L1294.73805,606.09375 C1294.89397,606.041667 1294.99792,605.989583 1295.0499,605.9375 L1295.0499,605.9375 L1298.94802,602.916667 L1298.94802,618.645833 L1297.1289,618.645833 L1297.1289,620 L1296.03742,620 L1296.03742,618.645833 L1294.06237,618.645833 L1294.06237,620 L1292.97089,620 L1292.97089,618.645833 L1290.99584,618.645833 L1290.99584,620 L1289.90437,620 L1289.90437,618.645833 L1287.92931,618.645833 L1287.92931,620 L1286.83784,620 L1286.83784,618.645833 L1284.86279,618.645833 L1284.86279,620 L1283.77131,620 L1283.77131,618.645833 L1281.79626,618.645833 L1281.79626,620 L1280.70478,620 L1280.70478,618.645833 L1278.72973,618.645833 L1278.72973,620 L1277.63825,620 L1277.63825,618.645833 L1275.8711,618.645833 C1275.61123,618.645833 1275.35135,618.4375 1275.35135,618.125 L1275.35135,618.125 L1275.35135,616.354167 L1274,616.354167 L1274,615.260417 L1275.35135,615.260417 L1275.35135,613.28125 L1274,613.28125 L1274,612.1875 L1275.35135,612.1875 L1275.35135,610.15625 L1274,610.15625 L1274,609.0625 L1275.35135,609.0625 L1275.35135,607.083333 L1274,607.083333 L1274,605.989583 L1275.35135,605.989583 L1275.35135,604.010417 L1274,604.010417 L1274,602.916667 L1275.35135,602.916667 L1275.35135,600.9375 L1274,600.9375 L1274,599.84375 L1275.35135,599.84375 L1275.35135,597.864583 L1274,597.864583 L1274,596.770833 L1275.35135,596.770833 L1275.35135,595 L1276.44283,595 Z M1299,596.875 L1299,601.510417 L1294.4262,605 L1286.21414,606.614583 C1286.05821,606.614583 1285.95426,606.71875 1285.85031,606.822917 L1285.85031,606.822917 L1281.64033,613.229167 L1277.06653,616.5625 L1280.96466,606.510417 L1289.85239,603.854167 C1289.95634,603.802083 1290.06029,603.75 1290.11227,603.697917 L1290.11227,603.697917 L1298.68815,596.875 L1299,596.875 Z" id="14"></path>
        </g>
    </g>
</svg>