<?xml version="1.0" encoding="UTF-8"?>
<svg width="25px" height="25px" viewBox="0 0 25 25" version="1.1" xmlns="http://www.w3.org/2000/svg" xmlns:xlink="http://www.w3.org/1999/xlink">
    <title>BF2E1B23-7184-4149-BB5D-8E9A876BB779</title>
    <g id="Page-1" stroke="none" stroke-width="1" fill="none" fill-rule="evenodd">
        <g id="6-bottom-sheet" transform="translate(-1146.000000, -774.000000)" fill="#FFFFFF">
            <path d="M1161.38875,796.080963 C1162.97125,793.515081 1163.89125,790.661459 1164.13375,787.754043 L1168.4125,787.754043 C1167.91625,791.709831 1165.11125,794.953777 1161.38875,796.080963 M1158.50625,795.882048 C1156.70625,793.446274 1155.64875,790.635188 1155.36875,787.754043 L1161.6325,787.754043 C1161.35625,790.633937 1160.3025,793.445023 1158.50625,795.882048 M1148.58625,787.754043 L1152.86625,787.754043 C1153.11125,790.66271 1154.03625,793.518834 1155.62375,796.084716 C1151.895,794.961283 1149.08375,791.714835 1148.58625,787.754043 M1155.11,777.098938 C1153.72,779.641051 1152.9675,782.432121 1152.83375,785.251964 L1148.58625,785.251964 C1149.06,781.476326 1151.64,778.356233 1155.11,777.098938 M1158.45875,776.495937 C1158.47,776.480925 1158.48125,776.465912 1158.4925,776.4509 C1158.50375,776.465912 1158.51375,776.480925 1158.525,776.495937 C1160.44375,779.109359 1161.49125,782.156892 1161.665,785.251964 L1155.33375,785.251964 C1155.50375,782.158143 1156.54625,779.111861 1158.45875,776.495937 M1168.4125,785.251964 L1164.165,785.251964 C1164.0275,782.429618 1163.27,779.637298 1161.87375,777.092683 C1165.3525,778.347476 1167.93875,781.470071 1168.4125,785.251964 M1159.56875,774.046402 C1152.1775,773.41838 1146,779.248225 1146,786.503004 C1146,793.298651 1151.41875,798.803226 1158.1375,798.994635 C1165.23375,799.199805 1171,793.493813 1171,786.503004 C1171,780.050141 1166.085,774.603114 1159.56875,774.046402" id="globe_network-[#1294]"></path>
        </g>
    </g>
</svg>