<?xml version="1.0" encoding="UTF-8"?>
<svg width="25px" height="24px" viewBox="0 0 25 24" version="1.1" xmlns="http://www.w3.org/2000/svg" xmlns:xlink="http://www.w3.org/1999/xlink">
    <title>E6F9FAEF-C2A0-4C58-BA78-43A9CA02DC48</title>
    <g id="Page-1" stroke="none" stroke-width="1" fill="none" fill-rule="evenodd">
        <g id="6-bottom-sheet" transform="translate(-1200.000000, -686.000000)" fill="#FFFFFF" fill-rule="nonzero">
            <path d="M1200.7716,686 C1201.19775,686 1201.54321,686.343296 1201.54321,686.766773 L1201.54321,686.766773 L1201.54321,708.466454 L1224.2284,708.466454 C1224.65454,708.466454 1225,708.80975 1225,709.233227 C1225,709.656704 1224.65454,710 1224.2284,710 L1224.2284,710 L1200.7716,710 C1200.34546,710 1200,709.656704 1200,709.233227 L1200,709.233227 L1200,686.766773 C1200,686.343296 1200.34546,686 1200.7716,686 Z M1222.71685,703.491629 C1223.46301,703.491629 1224.0679,704.096517 1224.0679,704.842684 C1224.0679,705.58885 1223.46301,706.193738 1222.71685,706.193738 L1213.885,706.193738 C1213.13884,706.193738 1212.53395,705.58885 1212.53395,704.842684 C1212.53395,704.096517 1213.13884,703.491629 1213.885,703.491629 L1222.71685,703.491629 Z M1215.72611,698.829649 C1216.47227,698.829649 1217.07716,699.434536 1217.07716,700.180703 C1217.07716,700.92687 1216.47227,701.531757 1215.72611,701.531757 L1206.89426,701.531757 C1206.1481,701.531757 1205.54321,700.92687 1205.54321,700.180703 C1205.54321,699.434536 1206.1481,698.829649 1206.89426,698.829649 L1215.72611,698.829649 Z M1211.5224,694.216741 C1212.26857,694.216741 1212.87346,694.821629 1212.87346,695.567796 C1212.87346,696.313962 1212.26857,696.91885 1211.5224,696.91885 L1206.89426,696.91885 C1206.1481,696.91885 1205.54321,696.313962 1205.54321,695.567796 C1205.54321,694.821629 1206.1481,694.216741 1206.89426,694.216741 L1211.5224,694.216741 Z M1209.64586,689.478083 C1210.39203,689.478083 1210.99691,690.082971 1210.99691,690.829137 C1210.99691,691.575304 1210.39203,692.180192 1209.64586,692.180192 L1205.01772,692.180192 C1204.27155,692.180192 1203.66667,691.575304 1203.66667,690.829137 C1203.66667,690.082971 1204.27155,689.478083 1205.01772,689.478083 L1209.64586,689.478083 Z" id="16"></path>
        </g>
    </g>
</svg>