<?xml version="1.0" encoding="UTF-8"?>
<svg width="25px" height="24px" viewBox="0 0 25 24" version="1.1" xmlns="http://www.w3.org/2000/svg" xmlns:xlink="http://www.w3.org/1999/xlink">
    <title>20A179CA-6083-4FDF-B5DB-9C3102CE1C0C</title>
    <g id="Page-1" stroke="none" stroke-width="1" fill="none" fill-rule="evenodd">
        <g id="6-bottom-sheet" transform="translate(-1145.000000, -686.000000)" fill="#FFFFFF" fill-rule="nonzero">
            <path d="M1145.7716,686 C1146.19775,686 1146.54321,686.343296 1146.54321,686.766773 L1146.54321,686.766773 L1146.54321,708.466454 L1169.2284,708.466454 C1169.65454,708.466454 1170,708.80975 1170,709.233227 C1170,709.656704 1169.65454,710 1169.2284,710 L1169.2284,710 L1145.7716,710 C1145.34546,710 1145,709.656704 1145,709.233227 L1145,709.233227 L1145,686.766773 C1145,686.343296 1145.34546,686 1145.7716,686 Z M1149.26543,705.012907 C1149.72056,705.012907 1150.08951,705.379548 1150.08951,705.831821 C1150.08951,706.284095 1149.72056,706.650735 1149.26543,706.650735 C1148.81031,706.650735 1148.44136,706.284095 1148.44136,705.831821 C1148.44136,705.379548 1148.81031,705.012907 1149.26543,705.012907 Z M1153.28704,699.467604 C1155.05298,699.467604 1156.48457,700.890223 1156.48457,702.645112 C1156.48457,704.400001 1155.05298,705.82262 1153.28704,705.82262 C1151.52109,705.82262 1150.08951,704.400001 1150.08951,702.645112 C1150.08951,700.890223 1151.52109,699.467604 1153.28704,699.467604 Z M1164.46914,697.194888 C1166.43281,697.194888 1168.02469,698.776796 1168.02469,700.728179 C1168.02469,702.679562 1166.43281,704.26147 1164.46914,704.26147 C1162.50546,704.26147 1160.91358,702.679562 1160.91358,700.728179 C1160.91358,698.776796 1162.50546,697.194888 1164.46914,697.194888 Z M1158.22222,700.277316 C1158.91599,700.277316 1159.4784,700.836202 1159.4784,701.525623 C1159.4784,702.215044 1158.91599,702.77393 1158.22222,702.77393 C1157.52846,702.77393 1156.96605,702.215044 1156.96605,701.525623 C1156.96605,700.836202 1157.52846,700.277316 1158.22222,700.277316 Z M1157.07407,694.428371 C1158.4599,694.428371 1159.58333,695.544769 1159.58333,696.921917 C1159.58333,698.299065 1158.4599,699.415463 1157.07407,699.415463 C1155.68825,699.415463 1154.56481,698.299065 1154.56481,696.921917 C1154.56481,695.544769 1155.68825,694.428371 1157.07407,694.428371 Z M1161.53086,694.232077 C1162.39509,694.232077 1163.09568,694.928281 1163.09568,695.787093 C1163.09568,696.645904 1162.39509,697.342109 1161.53086,697.342109 C1160.66664,697.342109 1159.96605,696.645904 1159.96605,695.787093 C1159.96605,694.928281 1160.66664,694.232077 1161.53086,694.232077 Z M1167.72531,695.489585 C1168.18043,695.489585 1168.54938,695.856225 1168.54938,696.308498 C1168.54938,696.760772 1168.18043,697.127412 1167.72531,697.127412 C1167.27019,697.127412 1166.90123,696.760772 1166.90123,696.308498 C1166.90123,695.856225 1167.27019,695.489585 1167.72531,695.489585 Z M1165.52469,689.171374 C1167.20541,689.171374 1168.5679,690.525333 1168.5679,692.195527 C1168.5679,693.865721 1167.20541,695.219681 1165.52469,695.219681 C1163.84397,695.219681 1162.48148,693.865721 1162.48148,692.195527 C1162.48148,690.525333 1163.84397,689.171374 1165.52469,689.171374 Z" id="15"></path>
        </g>
    </g>
</svg>