<?xml version="1.0" encoding="UTF-8"?>
<svg width="24px" height="24px" viewBox="0 0 24 24" version="1.1" xmlns="http://www.w3.org/2000/svg" xmlns:xlink="http://www.w3.org/1999/xlink">
    <title>44D31471-0B90-4651-826B-7EDE35AD14F7</title>
    <g id="Page-1" stroke="none" stroke-width="1" fill="none" fill-rule="evenodd">
        <g id="6-bottom-sheet" transform="translate(-1170.000000, -505.000000)" stroke="#FFFFFF" stroke-width="2">
            <path d="M1182,523 C1178.686,523 1176,520.314 1176,517 C1176,513.686 1178.686,511 1182,511 C1185.314,511 1188,513.686 1188,517 C1188,520.314 1185.314,523 1182,523 L1182,523 Z M1182,506 C1175.925,506 1171,510.925 1171,517 C1171,523.075 1175.925,528 1182,528 C1188.075,528 1193,523.075 1193,517 C1193,510.925 1188.075,506 1182,506 L1182,506 Z M1182,506 L1182,511 M1187,521 L1190,524 M1177,521 L1174,524" id="8_a"></path>
        </g>
    </g>
</svg>