<?xml version="1.0" encoding="UTF-8"?>
<svg width="19px" height="21px" viewBox="0 0 19 21" version="1.1" xmlns="http://www.w3.org/2000/svg" xmlns:xlink="http://www.w3.org/1999/xlink">
    <title>BB1D0133-A5EF-4F37-80E1-D024D5822EF2</title>
    <g id="Page-1" stroke="none" stroke-width="1" fill="none" fill-rule="evenodd">
        <g id="6-bottom-sheet" transform="translate(-1146.000000, -326.000000)" fill="#FFFFFF" fill-rule="nonzero">
            <path d="M1151.0812,347 L1152.12092,342.050209 L1156.64872,342.050209 L1155.65931,347 L1158.64431,347 L1159.63372,342.050209 L1162.7361,342.050209 L1163.23919,339.531381 L1160.15357,339.531381 L1161.36099,333.439331 L1164.4466,333.439331 L1165,330.920502 L1161.91439,330.920502 L1162.87026,326 L1159.88526,326 L1158.87908,330.920502 L1154.35128,330.920502 L1155.30715,326 L1152.32215,326 L1151.36628,330.920502 L1148.28067,330.920502 L1147.72727,333.439331 L1150.81289,333.439331 L1149.60547,339.531381 L1146.51986,339.531381 L1146,342.050209 L1149.10238,342.050209 L1148.0962,347 L1151.0812,347 Z M1157.73864,339 L1153,339 L1154.24432,333 L1159,333 L1157.73864,339 Z" id="#"></path>
        </g>
    </g>
</svg>