<?xml version="1.0" encoding="UTF-8"?>
<svg width="25px" height="26px" viewBox="0 0 25 26" version="1.1" xmlns="http://www.w3.org/2000/svg" xmlns:xlink="http://www.w3.org/1999/xlink">
    <title>3C210C49-40B7-4D14-B13B-6C21813CCA78</title>
    <g id="Page-1" stroke="none" stroke-width="1" fill="none" fill-rule="evenodd">
        <g id="6-bottom-sheet" transform="translate(-1290.000000, -321.000000)" fill="#FFFFFF" fill-rule="nonzero">
            <path d="M1301.93676,332.480625 L1301.93676,347 L1298.45269,347 L1298.45269,332.480625 L1301.93676,332.480625 Z M1312.65047,332.480625 L1312.65047,347 L1309.1664,347 L1309.1664,332.480625 L1312.65047,332.480625 Z M1296.57789,337.026563 L1296.57789,347 L1293.09382,347 L1293.09382,337.026563 L1296.57789,337.026563 Z M1307.2916,339.013125 L1307.2916,347 L1303.80753,347 L1303.80753,339.013125 L1307.2916,339.013125 Z M1292.02366,331.87125 C1293.1421,331.87125 1294.04731,332.789375 1294.04731,333.914688 C1294.04731,335.04 1293.13808,335.958125 1292.02366,335.958125 C1290.90521,335.958125 1290,335.04 1290,333.914688 C1290,332.785312 1290.90924,331.87125 1292.02366,331.87125 Z M1305.38059,331.517812 C1306.49501,331.517812 1307.40425,332.435938 1307.40425,333.56125 C1307.40425,334.686562 1306.49903,335.604688 1305.38059,335.604688 C1304.26215,335.604688 1303.35694,334.686562 1303.35694,333.56125 C1303.35694,332.431875 1304.26617,331.517812 1305.38059,331.517812 Z M1296.8233,327.48375 C1296.98021,327.707187 1297.1693,327.902188 1297.38655,328.064687 L1297.38655,328.064687 L1293.95478,331.83875 C1293.75764,331.647812 1293.53637,331.489375 1293.29096,331.3675 L1293.29096,331.3675 Z M1301.3373,327.5325 L1304.09318,331.02625 C1303.85179,331.148125 1303.63051,331.306562 1303.4374,331.4975 L1303.4374,331.4975 L1300.76199,328.10125 C1300.98326,327.942813 1301.17638,327.751875 1301.3373,327.5325 L1301.3373,327.5325 Z M1311.04924,325.123438 C1311.24638,325.314375 1311.46765,325.46875 1311.70904,325.590625 L1311.70904,325.590625 L1307.31172,331.485313 C1307.11458,331.294375 1306.89331,331.135938 1306.64789,331.014063 L1306.64789,331.014063 Z M1299.0964,323.754375 C1300.21484,323.754375 1301.12005,324.6725 1301.12005,325.797813 C1301.12005,326.923125 1300.21484,327.84125 1299.0964,327.84125 C1297.98198,327.84125 1297.07274,326.923125 1297.07274,325.797813 C1297.07274,324.6725 1297.98198,323.754375 1299.0964,323.754375 Z M1312.97634,321 C1314.09076,321 1315,321.914062 1315,323.043437 C1315,324.172813 1314.09076,325.086875 1312.97634,325.086875 C1311.86192,325.086875 1310.95269,324.172813 1310.95269,323.043437 C1310.95269,321.914062 1311.86192,321 1312.97634,321 Z" id="Combined-Shape"></path>
        </g>
    </g>
</svg>