<?xml version="1.0" encoding="UTF-8"?>
<svg width="20px" height="20px" viewBox="0 0 20 20" version="1.1" xmlns="http://www.w3.org/2000/svg" xmlns:xlink="http://www.w3.org/1999/xlink">
    <title>7392C25A-A872-44F2-9D89-FA457F017365</title>
    <g id="Page-1" stroke="none" stroke-width="1" fill="none" fill-rule="evenodd">
        <g id="6-bottom-sheet" transform="translate(-1334.000000, -508.000000)" fill="#FFFFFF" fill-rule="nonzero">
            <path d="M1334,524.2 L1338.35556,524.2 L1338.35556,528 L1334,528 L1334,524.2 Z M1334,520.511111 L1338.35556,520.511111 L1338.35556,518.177778 L1334,518.177778 L1334,520.511111 Z M1334,513 L1338.35556,513 L1338.35556,510 L1334,510 L1334,513 Z M1339.22222,528 L1343.57778,528 L1343.57778,526.488889 L1339.22222,526.488889 L1339.22222,528 Z M1339.22222,520.511111 L1343.57778,520.511111 L1343.57778,516 L1339.22222,516 L1339.22222,520.511111 Z M1339.22222,513 L1343.57778,513 L1343.57778,508.666667 L1339.22222,508.666667 L1339.22222,513 Z M1344.44444,528 L1348.8,528 L1348.8,522.155556 L1344.44444,522.155556 L1344.44444,528 Z M1344.44444,520.511111 L1348.8,520.511111 L1348.8,518.333333 L1344.44444,518.333333 L1344.44444,520.511111 Z M1344.44444,513 L1348.8,513 L1348.8,509.177778 L1344.44444,509.177778 L1344.44444,513 Z M1349.64444,528 L1354,528 L1354,524.2 L1349.64444,524.2 L1349.64444,528 Z M1349.64444,520.511111 L1354,520.511111 L1354,519.333333 L1349.64444,519.333333 L1349.64444,520.511111 Z M1349.64444,513 L1354,513 L1354,508 L1349.64444,508 L1349.64444,513 Z" id="Shape"></path>
        </g>
    </g>
</svg>